<?xml version="1.0" encoding="iso-8859-1"?>
<!-- Generator: Adobe Illustrator 16.0.0, SVG Export Plug-In . SVG Version: 6.00 Build 0)  -->
<!DOCTYPE svg PUBLIC "-//W3C//DTD SVG 1.1//EN" "http://www.w3.org/Graphics/SVG/1.1/DTD/svg11.dtd">
<svg version="1.1" id="Capa_1" xmlns="http://www.w3.org/2000/svg" xmlns:xlink="http://www.w3.org/1999/xlink" x="0px" y="0px"
	 width="485.216px" height="485.216px" viewBox="0 0 485.216 485.216" style="enable-background:new 0 0 485.216 485.216;"
	 xml:space="preserve">
<g>
	<g>
		<path d="M474.108,420.504l-91.807-91.839c-14.747,20.731-32.87,38.858-53.605,53.635l91.806,91.806
			c14.813,14.813,38.793,14.813,53.606,0C488.917,459.302,488.917,435.312,474.108,420.504z"/>
		<path d="M394.236,197.119C394.236,88.255,305.981,0,197.117,0C88.255,0,0.001,88.255,0.001,197.119
			s88.254,197.114,197.116,197.114C305.981,394.233,394.236,305.983,394.236,197.119z M220.101,291.534
			c-1.984,10.981-1.214,22.593-5.538,33.108c-3.556,7.107,0.073,15.546-2.606,22.598c-4.958,0.499-9.759,1.508-14.839,1.508
			c-83.604,0-151.626-68.027-151.626-151.629c0-32.875,10.781-63.108,28.621-87.986c-0.518,2.1-1.05,4.203-1.094,6.396
			c-0.521,8.274,0.917,17.235,6.531,23.662c2.856,3.747,7.908,4.886,10.587,8.839c3.433,4.8,10.352,4.812,13.726,9.698
			c3.05,4.175,6.396,8.146,9.565,12.249c2.31,2.87,2.875,7.208,6.44,8.942c8.102,4.116,18.039,2.961,25.72,8.13
			c13.357,7.803,26.243,16.762,40.737,22.39c4.991,2.324,12.424-0.327,15.59,5.253c2.387,6.606-5.33,10.529-6.424,16.423
			c-0.842,3.733,0.679,8.142-2.161,11.225c2.989,7.399,7.906,13.831,12.272,20.43c3.631,5.302,10.058,7.705,13.861,12.797
			C222.054,280.454,220.604,286.288,220.101,291.534z M231.236,344.538c2.028-4.116,3.704-8.405,6.604-12.022
			c1.54-1.745,0.947-5.181,3.82-5.68c4.175-0.92,9.829-0.477,11.546-5.423c-0.621-0.621-1.186-1.274-1.745-1.862
			c2.608-0.065,5.185-0.299,7.789-0.271c5.899-7.668,12.886-14.57,17.119-23.34c2.455-4.615,8.531-4.672,11.729-8.494
			c2.692-2.931,5.866-5.656,7.695-9.273c1.251-5.12-0.62-11.131,2.969-15.578c3.463-3.995,8.111-7.458,9.03-12.998
			c1.032-3.379-1.129-6.723-4.148-8.086c-9.979-5.036-22.122-4.056-31.508-10.543c-2.875-2.606-1.871-7.208-4.359-10.13
			c-3.257-4.308-8.938-5.047-13.739-6.56c-3.906-1.02-6.66-4.161-10.247-5.834c-8.707-4.335-18.51-6.515-28.224-5.967
			c-3.818,0.166-7.757,1.631-9.743,5.11c-1.006,2.072-3.388,0.712-4.898,0.103c-7.775-3.834-16.214-7.787-20.969-15.429
			c-0.99-1.879-2.961-2.726-4.765-3.584c0.931-4.189,4.737-7.372,4.352-11.89c-4.933-1.659-9.908,0.964-14.881,0.383
			c-3.066-0.458-2.728-4.233-3.038-6.543c-0.606-4.576,0.432-9.742,4.501-12.482c5.02-3.643,11.729-7.537,18.022-4.826
			c5.302,2.264,5.407,9.388,10.396,11.99c2.947-4.987-0.829-10.51-0.875-15.737c2.873-4.235,7.598-6.515,11.257-9.922
			c2.679-2.072-1.141-5.538,1.153-7.803c4.487-6.13,9.183-12.571,15.919-16.377c4.485-2.618,9.743-0.31,14.601-0.681
			c3.792-1.244,5.833-5.167,9.299-6.945c5.092-3.003,11.225-2.471,16.792-1.524c-1.866-3.715-3.463-9.504-8.265-9.997
			c-3.823,1.407-4.798,6.665-8.976,7.88c-3.937,2.294-7.787-0.919-10.363-3.704c-4.592,1.883-9.285,3.659-14.186,4.579
			c10.069-4.459,21.114-6.459,30.943-11.477c1.451-0.861,4.06-2.224,2.818-4.249c-3.085-5.657-9.772-8.13-12.914-13.773
			c-2.044-2.961-2.31-7.019-5.062-9.432c-3.941-1.717-8.025,2.324-11.994,0.521c-4.947-2.401-8.396-7.451-13.98-8.59
			c-3.08-0.698-7.12-1.468-9.521,1.111c-1.689,5.433,2.28,10.557,2.518,15.917c-2.177,4.205-3.376,8.751-4.844,13.222
			c-0.917,3.199-4.411,4.578-7.477,3.869c-0.147-3.11,1.659-7.747-2.236-9.227c-7.374-2.978-15.058-5.274-22.285-8.574
			c-4.756-1.645-9.565-6.958-6.025-11.966c4.562-6.13,11.906-9.136,17.709-13.8c0.518-0.399,0.961-0.931,1.438-1.407
			c5.698-0.651,11.266-1.731,17.128-1.731c3.72,0,7.197,0.831,10.855,1.097c-1.972,1.094-3.953,2.175-5.687,3.626
			c2.873,1.438,6.144,0.858,9.225,1.333c7.33,0.371,11.966,8.055,19.31,8.127c1.513-3.731-4.531-2.975-5.196-6.025
			c2.856-0.311,6.027,1.064,8.629-0.43c0.267-1.407-0.324-2.235-1.122-2.933c9.402,2.312,18.461,5.407,27.095,9.388
			c-0.023,0.712,0.047,1.421-0.5,2.18c-1.866,3.643-8.592,2.175-8.736,6.765c2.604,6.679,7.762,12.232,13.176,16.837
			c3.733,2.756,9.623,5.376,13.684,1.822c3.468-3.376,4.709-9.15,8.237-12.349c37.784,27.601,62.66,71.92,62.66,122.191
			C348.746,268.95,298.407,328.964,231.236,344.538z"/>
	</g>
</g>
<g>
</g>
<g>
</g>
<g>
</g>
<g>
</g>
<g>
</g>
<g>
</g>
<g>
</g>
<g>
</g>
<g>
</g>
<g>
</g>
<g>
</g>
<g>
</g>
<g>
</g>
<g>
</g>
<g>
</g>
</svg>
